<?xml version="1.0" standalone="no"?><!DOCTYPE svg PUBLIC "-//W3C//DTD SVG 1.1//EN" "http://www.w3.org/Graphics/SVG/1.1/DTD/svg11.dtd"><svg t="1651739644654" class="icon" viewBox="0 0 1024 1024" version="1.1" xmlns="http://www.w3.org/2000/svg" p-id="32173" width="36" height="36" xmlns:xlink="http://www.w3.org/1999/xlink"><defs><style type="text/css">@font-face { font-family: feedback-iconfont; src: url("//at.alicdn.com/t/font_1031158_u69w8yhxdu.woff2?t=1630033759944") format("woff2"), url("//at.alicdn.com/t/font_1031158_u69w8yhxdu.woff?t=1630033759944") format("woff"), url("//at.alicdn.com/t/font_1031158_u69w8yhxdu.ttf?t=1630033759944") format("truetype"); }
</style></defs><path d="M704 620.8c3.2 35.2 6.4 67.2 6.4 102.4 0 41.6-22.4 70.4-54.4 73.6-16 3.2-35.2 0-51.2-6.4-32-16-60.8-38.4-92.8-57.6-16 12.8-32 25.6-51.2 38.4-9.6 6.4-22.4 12.8-32 16-57.6 25.6-105.6-3.2-108.8-67.2 0-32 3.2-67.2 6.4-102.4-19.2-6.4-38.4-12.8-57.6-25.6-19.2-9.6-35.2-22.4-51.2-38.4-28.8-28.8-25.6-64 3.2-92.8 25.6-28.8 60.8-41.6 96-54.4 3.2 0 9.6-3.2 12.8-3.2-3.2-22.4-6.4-48-9.6-70.4 0-19.2 3.2-41.6 6.4-60.8 9.6-35.2 41.6-51.2 80-41.6 38.4 9.6 67.2 32 92.8 54.4 6.4 3.2 9.6 9.6 12.8 12.8 25.6-19.2 51.2-38.4 80-54.4 19.2-12.8 41.6-19.2 64-12.8 32 6.4 51.2 35.2 54.4 76.8v51.2c0 16-6.4 32-9.6 51.2 19.2 6.4 35.2 12.8 54.4 22.4 25.6 12.8 51.2 25.6 67.2 51.2 16 22.4 16 48 0 70.4-16 25.6-41.6 38.4-67.2 51.2-19.2 3.2-35.2 9.6-51.2 16z m-185.6-3.2c9.6 0 25.6-3.2 38.4-3.2 9.6 0 16-3.2 22.4-12.8 16-25.6 32-51.2 44.8-80 3.2-6.4 3.2-16 0-19.2-16-28.8-32-54.4-48-80-3.2-6.4-9.6-9.6-16-9.6-28.8 0-54.4 0-83.2-3.2-16 0-28.8 6.4-38.4 22.4-6.4 9.6-12.8 19.2-19.2 32-35.2 64-35.2 38.4 0 102.4 38.4 60.8 19.2 48 99.2 51.2z m-185.6-25.6c9.6-25.6 19.2-51.2 28.8-73.6v-12.8c-9.6-25.6-19.2-48-28.8-73.6-32 9.6-64 22.4-89.6 41.6-28.8 22.4-28.8 51.2 0 73.6 25.6 25.6 57.6 35.2 89.6 44.8z m361.6-163.2c-12.8 28.8-22.4 54.4-32 80 0 3.2-3.2 6.4 0 6.4 9.6 25.6 19.2 51.2 32 83.2 28.8-16 60.8-28.8 86.4-44.8 35.2-22.4 35.2-54.4 0-76.8-25.6-22.4-57.6-32-86.4-48z m-342.4-32c28.8-3.2 54.4-6.4 80-12.8 3.2 0 6.4-3.2 6.4-3.2 16-22.4 32-41.6 51.2-64-25.6-22.4-51.2-44.8-83.2-57.6-35.2-12.8-57.6 0-64 38.4-3.2 32 3.2 64 9.6 99.2z m320 0c0-3.2 3.2-9.6 3.2-12.8 6.4-32 12.8-67.2 0-99.2-6.4-22.4-22.4-32-41.6-28.8-41.6 6.4-70.4 35.2-99.2 60.8 16 22.4 32 41.6 48 60.8l9.6 9.6c25.6 3.2 51.2 6.4 80 9.6z m-320 230.4c-6.4 35.2-16 67.2-6.4 102.4 6.4 32 28.8 44.8 60.8 35.2 35.2-9.6 60.8-35.2 86.4-57.6-16-22.4-32-41.6-51.2-64-3.2-3.2-6.4-6.4-9.6-6.4-25.6 0-51.2-3.2-80-9.6z m179.2 80c19.2 25.6 57.6 51.2 83.2 60.8 32 9.6 54.4 0 60.8-35.2 6.4-35.2 0-67.2-6.4-102.4-28.8 3.2-57.6 3.2-83.2 12.8-19.2 9.6-28.8 32-41.6 48-3.2 6.4-6.4 9.6-12.8 16z m19.2-326.4c-12.8-16-25.6-28.8-38.4-44.8-12.8 16-22.4 28.8-38.4 44.8h76.8z m0 262.4h-73.6c12.8 16 25.6 28.8 38.4 44.8 9.6-16 22.4-28.8 35.2-44.8z m-131.2-32c-12.8-22.4-25.6-41.6-38.4-67.2-6.4 19.2-12.8 35.2-19.2 54.4 16 6.4 35.2 9.6 57.6 12.8z m224-67.2l-38.4 67.2c22.4-3.2 38.4-6.4 57.6-9.6-3.2-19.2-9.6-35.2-19.2-57.6z m-262.4-64l38.4-67.2c-22.4 3.2-38.4 6.4-57.6 9.6 6.4 22.4 9.6 38.4 19.2 57.6z m224-67.2c6.4 12.8 12.8 22.4 19.2 32 6.4 9.6 12.8 19.2 19.2 32 6.4-19.2 12.8-38.4 19.2-54.4-19.2 0-35.2-3.2-57.6-9.6z" fill="#61dafb" p-id="32174"></path></svg>